<svg xmlns="http://www.w3.org/2000/svg" data-name="Layer 1" viewBox="0 0 19.6 24.313"><circle cx="3.441" cy="7.023" r=".8" style="stroke-width:.2743px;stroke-miterlimit:10;stroke:#000"/><path d="M6.041 7.023h-1.9" style="fill:none;stroke-width:.4915px;stroke-miterlimit:10;stroke:#000"/><path d="m6.641 6.023-4.4-4.4v-1.1h12.1v1.1l-4.2 4.4"/><path d="M6.641 6.423v2.1h3.5v-2.1h-3.5z" /><path d="M6.141 8.923a7.772 7.772 0 0 0-5.5 7.5v5.2h15.5v-5.3a7.738 7.738 0 0 0-5.6-7.4Z"/><path d="M13.941 23.823a4.423 4.423 0 0 1-4.4-4.6v-.6h-.4a.32.32 0 0 1-.3-.3v-1.3a.32.32 0 0 1 .3-.3h1.6v-2.8a.9.9 0 0 1 1.8 0v2.8h2.7v-2.8a.9.9 0 1 1 1.8 0v2.8h1.7a.32.32 0 0 1 .3.3v1.3a.32.32 0 0 1-.3.3h-.4v.6a4.485 4.485 0 0 1-4.4 4.6" style="stroke:#fff;stroke-width:.4551px;stroke-miterlimit:10"/></svg>