<svg xmlns="http://www.w3.org/2000/svg" viewBox="0 0 440.99 322" style="enable-background:new 0 0 440.99 322" xml:space="preserve"><path d="M428.19 268.48H11.64V46.04C11.64 25.58 28.22 9 48.67 9h342.49c20.45 0 37.04 16.58 37.04 37.04v222.44z" style="fill:none;stroke:#000;stroke-width:18;stroke-miterlimit:10"/><path d="M57.88 132.43c1.51-.27 3.02-.53 4.53-.76.68-.11 1.36-.2 2.05-.31 1.46-.22-.62.08-.75.1.52-.05 1.03-.13 1.55-.2 3.09-.37 6.2-.62 9.32-.64a56.9 56.9 0 0 1 4.33.12c.75.05 1.5.12 2.25.2.59.06 1.52.36-.81-.11.48.1.98.16 1.46.25 1.36.25 2.71.58 4.03 1 .69.22 1.38.46 2.06.72.58.22 1.17.73-.73-.31.42.23.88.41 1.31.63 1.24.63 2.37 1.39 3.52 2.17.9.61-1.39-1.17-.58-.44.31.28.64.54.95.82.71.64 1.38 1.33 2.01 2.04l.75.87c.39.46.61 1.17-.29-.4.37.65.91 1.25 1.33 1.87 1.03 1.51 1.97 3.08 2.9 4.65 4.07 6.89 8.09 13.81 12.13 20.72 4.03 6.88 8.05 13.76 12.08 20.64 3.29 5.62 6.56 11.26 10.29 16.59 8.21 11.73 18.63 22.18 32.81 26.14 15.25 4.27 31.5.76 45.33-6.27 13.31-6.77 24.74-16.95 35.77-26.87 11-9.9 21.63-20.2 32.48-30.26 5.38-4.99 10.82-9.92 16.37-14.72 2.82-2.43 5.66-4.82 8.55-7.17 1.44-1.17 2.9-2.33 4.36-3.48.33-.26.65-.51.98-.76 1.22-.95-.07.1-.28.21.82-.47 1.57-1.2 2.33-1.77 11.11-8.34 22.92-15.81 35.49-21.75 1.39-.66 2.79-1.3 4.2-1.91l1.32-.57c1.07-.47-1.56.64-.47.2.89-.36 1.77-.73 2.66-1.08 3.2-1.26 6.45-2.41 9.73-3.43 3.27-1.02 6.59-1.92 9.93-2.68 1.58-.36 3.16-.69 4.75-.98.75-.14 1.5-.27 2.25-.4.51-.08 2.45-.09 2.82-.43l-1.16.15c.28-.04.57-.07.85-.11.38-.05.76-.09 1.14-.13.85-.1 1.71-.18 2.57-.26 1.72-.15 3.44-.26 5.16-.34 4.51-.2 8.86-3.83 8.64-8.64-.2-4.51-3.8-8.86-8.64-8.64-28.96 1.31-56.27 13-80.06 29.04-24.82 16.74-46.08 37.93-67.89 58.26-5.37 5.01-10.79 9.97-16.33 14.8-2.71 2.36-5.44 4.7-8.24 6.96-.7.56-1.4 1.11-2.1 1.67-1 .8 1.69-1.27.1-.07-.32.24-.63.48-.95.72-1.43 1.07-2.88 2.12-4.35 3.13-2.94 2.02-5.97 3.9-9.11 5.58-1.57.84-3.16 1.63-4.79 2.36-.35.16-.75.29-1.09.48 1.66-.93.94-.39.42-.19-.91.36-1.83.71-2.75 1.03-3.36 1.17-6.79 1.98-10.29 2.59-1.68.29.53-.04.55-.06-.11.16-1.23.14-1.46.16-.88.08-1.76.14-2.64.18-1.75.08-3.51.06-5.26-.06-.22-.01-2.31-.13-2.32-.22 0 .05 2.1.32.28.02-.48-.08-.95-.17-1.43-.26-1.71-.35-3.4-.8-5.04-1.37-.37-.13-.73-.27-1.1-.4-1.51-.52.37.07.44.21-.12-.27-1.78-.83-2.1-.99-1.44-.73-2.84-1.55-4.19-2.45-.57-.38-1.11-.78-1.67-1.17-1.46-1.01 1.25 1.02.33.27-.26-.22-.53-.42-.79-.64a52.902 52.902 0 0 1-3.59-3.27c-1.04-1.03-2.03-2.1-3-3.2a83.62 83.62 0 0 1-1.51-1.78l-.66-.81c-.46-.57-.97-1.78.06.1-.69-1.26-1.8-2.43-2.63-3.61-.96-1.37-1.88-2.76-2.78-4.17-1.71-2.66-3.34-5.36-4.94-8.09-4-6.79-7.96-13.6-11.95-20.4-4.03-6.88-8.05-13.76-12.08-20.64-3.76-6.42-7.45-13.37-13.35-18.1-5.85-4.7-12.55-7.36-19.96-8.36-6.38-.86-12.7-.65-19.07.16-3.66.47-7.3 1.02-10.94 1.66-4.46.79-7.38 6.48-6.03 10.63 1.55 4.79 5.85 6.87 10.63 6.03zM251.33 284.77v9.31h-52.36v-9.31H0v18.62C0 313.66 8.34 322 18.62 322h403.76c10.28 0 18.62-8.34 18.62-18.62v-18.62H251.33z"/></svg>